<svg xmlns="http://www.w3.org/2000/svg" xmlns:xlink="http://www.w3.org/1999/xlink" viewBox="0,0,256,256" width="128px" height="128px"><g fill="#ffffff" fill-rule="nonzero" stroke="none" stroke-width="1" stroke-linecap="butt" stroke-linejoin="miter" stroke-miterlimit="10" stroke-dasharray="" stroke-dashoffset="0" font-family="none" font-weight="none" font-size="none" text-anchor="none" style="mix-blend-mode: normal"><g transform="scale(8,8)"><path d="M14.51953,4.00977c-0.28,-0.01 -0.51953,0.21977 -0.51953,0.50977v1.98047c0,0.28 0.22,0.5 0.5,0.5v0.01953c6.23,0.24 11.24047,5.25047 11.48047,11.48047h0.01953c0,0.28 0.22,0.5 0.5,0.5h1.98047c0.29,0 0.51976,-0.23953 0.50977,-0.51953c-0.27,-7.86 -6.6107,-14.2007 -14.4707,-14.4707zM14.51953,9.00977c-0.28,-0.01 -0.51953,0.22977 -0.51953,0.50977v1.98047c0,0.28 0.22,0.5 0.5,0.5v0.0293c3.47,0.23 6.2407,3.0007 6.4707,6.4707h0.0293c0,0.28 0.22,0.5 0.5,0.5h1.98047c0.28,0 0.51976,-0.23953 0.50977,-0.51953c-0.27,-5.1 -4.3707,-9.2007 -9.4707,-9.4707zM5.5,10c-0.28,0 -0.5,0.22 -0.5,0.5v11c0,3.58 2.92,6.5 6.5,6.5c3.58,0 6.5,-2.92 6.5,-6.5c0,-3.58 -2.92,-6.5 -6.5,-6.5c-0.28,0 -0.5,0.22 -0.5,0.5v3c0,0.28 0.22,0.5 0.5,0.5c1.38,0 2.5,1.12 2.5,2.5c0,1.38 -1.12,2.5 -2.5,2.5c-1.38,0 -2.5,-1.12 -2.5,-2.5v-11c0,-0.28 -0.22,-0.5 -0.5,-0.5z"></path></g></g></svg>